HIERARCHY
ROOT Hips
{
  OFFSET -21.6994 31.6921 0
  CHANNELS 6 Xposition Yposition Zposition Zrotation Xrotation Yrotation
  JOINT Bip01_Pelvis
  {
    OFFSET 0 0 0
    CHANNELS 6 Xposition Yposition Zposition Zrotation Xrotation Yrotation
    JOINT BN_Tail_01
    {
      OFFSET -7.25226 -1.74978 0
      CHANNELS 6 Xposition Yposition Zposition Zrotation Xrotation Yrotation
      JOINT BN_Tail_02
      {
        OFFSET 15.788 0 0
        CHANNELS 6 Xposition Yposition Zposition Zrotation Xrotation Yrotation
        JOINT BN_Tail_03
        {
          OFFSET 16.0015 0 0
          CHANNELS 6 Xposition Yposition Zposition Zrotation Xrotation Yrotation
          JOINT BN_Tail_04
          {
            OFFSET 16.1689 0 0
            CHANNELS 6 Xposition Yposition Zposition Zrotation Xrotation Yrotation
            End Site
            {
              OFFSET 0 0 0
            }
          }
        }
      }
    }
    JOINT Bip01_Spine
    {
      OFFSET 6.38383 2.70859 0.585432
      CHANNELS 6 Xposition Yposition Zposition Zrotation Xrotation Yrotation
      JOINT BN_Mane_02
      {
        OFFSET 6.12662 8.45826 0
        CHANNELS 6 Xposition Yposition Zposition Zrotation Xrotation Yrotation
        End Site
        {
          OFFSET 0 0 0
        }
      }
      JOINT Bip01_R_Thigh
      {
        OFFSET -7.04074 -2.18223 -5.47025
        CHANNELS 6 Xposition Yposition Zposition Zrotation Xrotation Yrotation
        JOINT Bip01_R_Calf
        {
          OFFSET 13.6591 0 0
          CHANNELS 6 Xposition Yposition Zposition Zrotation Xrotation Yrotation
          JOINT Bip01_R_HorseLink
          {
            OFFSET 9.07516 0 0
            CHANNELS 6 Xposition Yposition Zposition Zrotation Xrotation Yrotation
            JOINT Bip01_R_Foot
            {
              OFFSET 8.13856 0 0
              CHANNELS 6 Xposition Yposition Zposition Zrotation Xrotation Yrotation
              JOINT Bip01_R_Toe0
              {
                OFFSET 3.79737 6.30086 0
                CHANNELS 6 Xposition Yposition Zposition Zrotation Xrotation Yrotation
                JOINT Bip01_R_Toe0Nub
                {
                  OFFSET 0.838764 0 0
                  CHANNELS 6 Xposition Yposition Zposition Zrotation Xrotation Yrotation
                  End Site
                  {
                    OFFSET 0 0 0
                  }
                }
              }
            }
          }
        }
      }
      JOINT Bip01_L_Thigh
      {
        OFFSET -6.18667 -2.14873 5.3508
        CHANNELS 6 Xposition Yposition Zposition Zrotation Xrotation Yrotation
        JOINT Bip01_L_Calf
        {
          OFFSET 13.6591 0 0
          CHANNELS 6 Xposition Yposition Zposition Zrotation Xrotation Yrotation
          JOINT Bip01_L_HorseLink
          {
            OFFSET 9.07515 0 0
            CHANNELS 6 Xposition Yposition Zposition Zrotation Xrotation Yrotation
            JOINT Bip01_L_Foot
            {
              OFFSET 8.13856 0 0
              CHANNELS 6 Xposition Yposition Zposition Zrotation Xrotation Yrotation
              JOINT Bip01_L_Toe0
              {
                OFFSET 3.79737 6.30086 0
                CHANNELS 6 Xposition Yposition Zposition Zrotation Xrotation Yrotation
                JOINT Bip01_L_Toe0Nub
                {
                  OFFSET 0.838764 0 0
                  CHANNELS 6 Xposition Yposition Zposition Zrotation Xrotation Yrotation
                  End Site
                  {
                    OFFSET 0 0 0
                  }
                }
              }
            }
          }
        }
      }
      JOINT Bip01_Spine1
      {
        OFFSET 12.1687 -0.0105438 0
        CHANNELS 6 Xposition Yposition Zposition Zrotation Xrotation Yrotation
        JOINT BN_Mane_R_01
        {
          OFFSET -0.157498 5.09008 -6.54008
          CHANNELS 6 Xposition Yposition Zposition Zrotation Xrotation Yrotation
          End Site
          {
            OFFSET 0 0 0
          }
        }
        JOINT BN_Mane_R_02
        {
          OFFSET -0.1575 5.09007 6.54
          CHANNELS 6 Xposition Yposition Zposition Zrotation Xrotation Yrotation
          End Site
          {
            OFFSET 0 0 0
          }
        }
        JOINT BN_Mane_01
        {
          OFFSET 8.29709 8.50414 0
          CHANNELS 6 Xposition Yposition Zposition Zrotation Xrotation Yrotation
          End Site
          {
            OFFSET 0 0 0
          }
        }
        JOINT Bip01_Spine2
        {
          OFFSET 13.2802 -0.0100708 1.51992e-005
          CHANNELS 6 Xposition Yposition Zposition Zrotation Xrotation Yrotation
          JOINT Bip01_Neck
          {
            OFFSET 12.4891 -6.66662 0
            CHANNELS 6 Xposition Yposition Zposition Zrotation Xrotation Yrotation
            JOINT Bip01_R_Clavicle
            {
              OFFSET -7.4542 -2.82621 -1.17874
              CHANNELS 6 Xposition Yposition Zposition Zrotation Xrotation Yrotation
              JOINT Bip01_R_UpperArm
              {
                OFFSET 13.2557 0 0
                CHANNELS 6 Xposition Yposition Zposition Zrotation Xrotation Yrotation
                JOINT Bip01_R_Forearm
                {
                  OFFSET 12.8897 0 0
                  CHANNELS 6 Xposition Yposition Zposition Zrotation Xrotation Yrotation
                  JOINT Bip01_R_Hand
                  {
                    OFFSET 11.2622 0 0
                    CHANNELS 6 Xposition Yposition Zposition Zrotation Xrotation Yrotation
                    JOINT Bip01_R_Finger0
                    {
                      OFFSET 3.98015 -0.208661 -0.0949803
                      CHANNELS 6 Xposition Yposition Zposition Zrotation Xrotation Yrotation
                      JOINT Bip01_R_Finger0Nub
                      {
                        OFFSET 6.57561 0 0
                        CHANNELS 6 Xposition Yposition Zposition Zrotation Xrotation Yrotation
                        End Site
                        {
                          OFFSET 0 0 0
                        }
                      }
                    }
                  }
                }
              }
            }
            JOINT Bip01_L_Clavicle
            {
              OFFSET -7.4541 -2.82679 1.17708
              CHANNELS 6 Xposition Yposition Zposition Zrotation Xrotation Yrotation
              JOINT Bip01_L_UpperArm
              {
                OFFSET 13.2558 0 0
                CHANNELS 6 Xposition Yposition Zposition Zrotation Xrotation Yrotation
                JOINT Bip01_L_Forearm
                {
                  OFFSET 12.8897 0 0
                  CHANNELS 6 Xposition Yposition Zposition Zrotation Xrotation Yrotation
                  JOINT Bip01_L_Hand
                  {
                    OFFSET 11.2622 0 0
                    CHANNELS 6 Xposition Yposition Zposition Zrotation Xrotation Yrotation
                    JOINT Bip01_L_Finger0
                    {
                      OFFSET 3.98014 -0.20866 0.0949764
                      CHANNELS 6 Xposition Yposition Zposition Zrotation Xrotation Yrotation
                      JOINT Bip01_L_Finger0Nub
                      {
                        OFFSET 6.57562 0 0
                        CHANNELS 6 Xposition Yposition Zposition Zrotation Xrotation Yrotation
                        End Site
                        {
                          OFFSET 0 0 0
                        }
                      }
                    }
                  }
                }
              }
            }
            JOINT Bip01_Neck1
            {
              OFFSET 4.19352 -0.00332451 0
              CHANNELS 6 Xposition Yposition Zposition Zrotation Xrotation Yrotation
              JOINT Bip01_Head
              {
                OFFSET 4.17604 0.298252 0
                CHANNELS 6 Xposition Yposition Zposition Zrotation Xrotation Yrotation
                JOINT BN_Eye_R_01
                {
                  OFFSET 6.53258 -3.90694 -2.55361
                  CHANNELS 6 Xposition Yposition Zposition Zrotation Xrotation Yrotation
                  End Site
                  {
                    OFFSET 0 0 0
                  }
                }
                JOINT BN_Eye_L_01
                {
                  OFFSET 6.5326 -3.90694 2.55371
                  CHANNELS 6 Xposition Yposition Zposition Zrotation Xrotation Yrotation
                  End Site
                  {
                    OFFSET 0 0 0
                  }
                }
                JOINT BN_Ear_R_01
                {
                  OFFSET 1.75934 -4.1584 -4.45634
                  CHANNELS 6 Xposition Yposition Zposition Zrotation Xrotation Yrotation
                  End Site
                  {
                    OFFSET 0 0 0
                  }
                }
                JOINT BN_Ear_L_01
                {
                  OFFSET 1.75933 -4.15841 4.45616
                  CHANNELS 6 Xposition Yposition Zposition Zrotation Xrotation Yrotation
                  End Site
                  {
                    OFFSET 0 0 0
                  }
                }
                JOINT BN_Beard_L_01
                {
                  OFFSET 11.2964 -1.06183 2.32054
                  CHANNELS 6 Xposition Yposition Zposition Zrotation Xrotation Yrotation
                  End Site
                  {
                    OFFSET 0 0 0
                  }
                }
                JOINT BN_Beard_R_01
                {
                  OFFSET 11.2964 -1.06182 -2.32036
                  CHANNELS 6 Xposition Yposition Zposition Zrotation Xrotation Yrotation
                  End Site
                  {
                    OFFSET 0 0 0
                  }
                }
                JOINT BN_Mouth_0
                {
                  OFFSET 1.3149 1.30001 0
                  CHANNELS 6 Xposition Yposition Zposition Zrotation Xrotation Yrotation
                  End Site
                  {
                    OFFSET 0 0 0
                  }
                }
                JOINT Bip01_HeadNub
                {
                  OFFSET 12.6869 0 0
                  CHANNELS 6 Xposition Yposition Zposition Zrotation Xrotation Yrotation
                  End Site
                  {
                    OFFSET 0 0 0
                  }
                }
              }
            }
          }
        }
      }
    }
  }
}
MOTION
Frames:	4
Frame Time:	0.0333333
-21.6994 27.9295 0 -180 -90 -90 0 1.13687e-013 0 -89.9974 1.65211 -89.998 -7.25225 -1.74978 -2.91038e-011 -29.129 10.7053 175.79 15.788 -7.10543e-015 0 -41.2179 20.3668 12.9498 16.0015 9.53674e-007 4.76837e-007 -42.0231 -3.58054 28.6145 16.1689 -1.90735e-006 3.8147e-006 -36.0002 -0.229425 30.8262 6.33246 2.89318 -0.00138176 21.992 -2.06124e-012 -9.22341e-012 6.12662 8.45827 -1.16415e-010 -88.9944 -0.0323181 -179.967 -6.95508 -0.311033 -5.42738 -90.5768 0.953855 173.83 13.6591 -1.90735e-006 8.88178e-016 -41.5484 7.72903e-006 6.00343e-006 9.07516 -5.72205e-006 0 35.8068 -1.19202e-007 4.84664e-007 8.13856 7.10543e-015 -8.88178e-016 26.3825 3.07596 5.43334 3.79737 6.30085 0 89.9468 2.32353e-011 6.44616e-012 0.83877 -5.96046e-008 0 -2.88949e-008 -2.88507e-011 1.93769e-011 -6.95508 -0.311058 5.42738 -141.705 -2.3255 -176.826 13.6591 9.53674e-007 0 -90.011 -1.78562e-008 9.60394e-006 9.07516 0 -4.76837e-007 61.8399 4.93342e-006 -9.04316e-006 8.13856 0 -4.76837e-007 -3.11 -12.8571 -4.00196 3.79738 6.30086 0 89.9995 6.81784e-005 -12.4979 0.838758 2.23517e-008 0 -179.96 0.000481476 -0.000407005 12.1681 -0.0104752 -2.54007e-006 -7.77667 -2.00048e-011 4.49608e-011 -0.157495 5.09008 -6.54009 -92.7406 -0.022027 -167.965 -0.157495 5.09007 6.54 87.255 -0.000390274 12.0139 8.2971 8.50413 -1.0842e-019 -91.651 -0.0231781 -179.978 13.2792 -0.00986671 1.16415e-010 -14.6228 8.59282e-011 4.30655e-011 12.4882 -6.66644 -1.01599e-005 -19.6204 1.71625e-010 1.50045e-010 -6.4536 -4.6782 -1.17794 -160.428 -52.226 111.902 13.2557 -1.90735e-006 -1.90735e-006 135.848 80.8846 -165.125 12.8897 -7.10543e-015 1.77636e-015 -65.188 -7.07393e-006 -1.52588e-005 11.2622 -4.76837e-007 0 -94.1697 72.8762 125.921 3.98015 -0.208661 -0.0949822 2.06108 8.51483 -35.8328 6.57562 -1.19209e-007 -2.22045e-016 179.96 1.72968e-005 1.73012e-005 -6.4536 -4.67821 1.17789 -160.44 55.331 -93.644 13.2558 -1.90735e-006 -9.53674e-007 69.3212 -12.879 93.6778 12.8897 0 0 -121.349 2.56335e-006 -9.22617e-007 11.2623 1.77636e-015 -2.86102e-006 -29.8447 -84.2967 -50.9448 3.98015 -0.208661 0.0949755 14.2321 -11.4819 62.2536 6.57563 0 -2.22044e-016 -1.29331e-007 -1.66047e-008 1.26406e-008 4.195 -0.00312996 1.16415e-010 20.5971 -1.93641e-010 -5.14485e-011 4.17604 0.298252 -1.16415e-010 4.32702 2.72549e-011 -3.30099e-011 6.53259 -3.90693 -2.55362 133.022 18.1127 163.581 6.5326 -3.90695 2.55371 -46.9761 18.1112 -16.4184 1.75934 -4.15839 -4.45634 24.7931 -39.7306 142.462 1.75933 -4.1584 4.45616 -155.196 -39.7317 -37.5282 11.2964 -1.06183 2.32054 151.29 -2.13808 -90 11.2964 -1.06183 -2.32035 -28.7077 -2.13817 89.9962 1.31489 1.30001 -4.33681e-019 -142.031 -0.0336456 -179.988 12.6869 -3.55271e-015 -8.67362e-019 -5.3724e-008 -1.47575e-010 3.05068e-011 
-23.6739 25.9322 0.620306 104.04 -87.4554 -173.81 -3.55271e-015 1.13687e-013 0 -94.0059 1.94586 -92.1345 -7.25225 -1.74978 -2.91043e-011 -22.2928 9.01166 -179.219 15.788 -2.13163e-014 1.77636e-015 -44.2981 13.1908 20.7527 16.0015 9.53674e-007 4.76837e-007 -53.6093 -8.65291 26.2128 16.1689 -1.90735e-006 3.8147e-006 -48.2721 2.72374 28.3959 6.31882 2.91991 -0.0472627 17.1002 4.69609 3.39883 6.12662 8.45827 2.7514e-010 -88.9949 -0.0311279 -179.982 -6.57211 -1.37002 -5.68654 -81.7577 1.91367 175.524 13.6591 -1.90735e-006 8.88178e-016 -62.1271 4.69885e-006 8.17156e-006 9.07516 -5.72205e-006 -4.08562e-014 64.1165 2.46218e-007 3.48211e-007 8.13856 -7.10543e-015 -8.88178e-015 14.5626 3.18172 4.47234 3.79737 6.30085 9.27791e-012 89.9467 0.000146431 -5.50576e-011 0.83877 -5.96046e-008 3.55271e-015 -2.88949e-008 -2.88507e-011 1.93769e-011 -7.21361 -0.481262 5.11217 -132.193 -1.18434 -172.878 13.6591 9.53674e-007 -5.32907e-015 -103.255 -1.16883e-005 6.85282e-006 9.07516 -1.06581e-014 -4.76837e-007 89.0928 4.94895e-007 -1.00584e-005 8.13856 -7.10543e-015 -4.76837e-007 -20.2353 -9.38463 -5.86373 3.79738 6.30086 -1.0421e-009 89.4945 0.111897 -12.5014 0.838758 2.23517e-008 -1.77636e-015 -179.96 0.000481476 -0.000407005 12.1681 -0.0104752 -2.54007e-006 0.874134 -0.280878 2.42693 -0.157495 5.09008 -6.54009 -92.7336 -0.0443539 -167.975 -0.157494 5.09007 6.54 87.2543 0.00290857 11.9973 8.2971 8.50413 2.61978e-008 -91.6509 -0.0398407 -179.97 13.2792 -0.00986671 8.60241e-011 -0.815366 -0.45159 2.28531 12.4882 -6.66644 -1.01982e-005 -2.57781 1.44218 -6.32508 -7.6152 -2.60922 -0.274239 174.712 -50.6111 101.812 13.2557 -1.90735e-006 -1.90735e-006 119.081 87.1747 -154.146 12.8897 0 -1.42109e-014 -70.8434 -5.22877e-006 -1.62544e-005 11.2622 -4.76837e-007 -5.32907e-015 -96.624 72.9165 123.911 3.98015 -0.208661 -0.0949822 0.368227 5.96503 -35.7818 6.57562 -1.19209e-007 6.88339e-015 179.96 1.72972e-005 1.73001e-005 -7.35572 -2.54978 2.06636 -167.937 55.9819 -105.094 13.2558 -1.90735e-006 -9.53674e-007 81.8471 -26.6902 103.717 12.8897 -9.76996e-015 -1.77636e-015 -112.095 2.07507e-006 -3.29065e-007 11.2623 6.21724e-014 -2.86102e-006 46.7713 -86.4388 32.7174 3.98015 -0.208661 0.0949755 14.2309 -11.4837 56.5714 6.57563 5.32907e-015 1.77636e-015 -1.29331e-007 -1.66047e-008 1.26406e-008 4.195 -0.00312996 1.21624e-010 24.7098 0.339345 -6.36913 4.17604 0.298252 -4.70455e-009 6.95247 6.56573 -5.86428 6.53259 -3.90693 -2.55362 148.078 12.1474 161.798 6.5326 -3.90695 2.55371 -33.7046 12.6746 -18.5203 1.75934 -4.15839 -4.45634 18.6557 -43.1164 144.726 1.75933 -4.1584 4.45616 -163.88 -36.0409 -39.1923 11.2964 -1.06183 2.32054 142.695 -13.6731 -97.0479 11.2964 -1.06183 -2.32035 -34.2336 -17.4316 83.4781 1.31489 1.30001 -3.55364e-008 -146.123 0.0315704 179.998 12.6869 1.42109e-014 -2.22045e-016 -5.3724e-008 -1.4757e-010 3.05047e-011 
-25.6101 23.9736 1.22857 107.891 -84.972 -177.66 0 1.13909e-013 0 -97.9247 2.36877 -94.2096 -7.25225 -1.74978 -2.91043e-011 -17.0594 7.72001 -175.566 15.788 0 4.88498e-015 -45.0541 8.28211 26.3309 16.0015 9.53674e-007 4.76837e-007 -63.0502 -12.4733 24.2382 16.1689 -1.90735e-006 3.8147e-006 -57.7216 4.68552 26.3873 6.30545 2.94611 -0.0922528 12.1672 8.89566 7.49891 6.12662 8.45827 -1.23874e-009 -88.9954 -0.029953 -179.997 -6.06962 -2.35763 -5.87606 -70.2868 2.27119 176.546 13.6591 -1.90735e-006 0 -74.6509 2.56346e-006 8.99814e-006 9.07516 -5.72205e-006 -6.57252e-014 87.066 2.55722e-007 1.43295e-007 8.13856 -7.10543e-015 -1.59872e-014 2.94804 3.17771 3.64251 3.79737 6.30085 -1.33937e-012 89.9467 0.000291 7.43713e-011 0.83877 -5.96046e-008 -1.77636e-015 -2.88949e-008 -2.88507e-011 1.93769e-011 -7.46971 -0.678632 4.75627 -122.079 0.683189 -169.245 13.6591 9.53674e-007 1.77636e-015 -111.29 -1.26584e-005 5.06507e-006 9.07516 -1.77636e-015 -4.76837e-007 111.681 6.28069e-006 -1.3222e-005 8.13856 -3.55271e-015 -4.76837e-007 -36.7363 -5.55094 -7.44247 3.79738 6.30086 -6.27113e-010 88.9993 0.221569 -12.5039 0.838758 2.23517e-008 1.77636e-015 -179.96 0.000481476 -0.000407005 12.1681 -0.0104752 -2.54006e-006 9.3611 -0.202043 4.82159 -0.157495 5.09008 -6.54009 -92.7267 -0.0662347 -167.984 -0.157494 5.09007 6.54 87.2537 0.00614567 11.981 8.2971 8.50413 6.15348e-008 -91.6509 -0.0561523 -179.963 13.2792 -0.00986671 4.50306e-011 12.7278 -0.359489 4.57358 12.4882 -6.66644 -1.02875e-005 14.1912 1.01166 -12.6728 -8.03057 -0.314564 0.604854 152.357 -46.6982 94.2041 13.2557 -1.90735e-006 -1.90735e-006 -80.9015 82.957 43.6009 12.8897 -1.77636e-015 -1.59872e-014 -66.2538 -6.09213e-006 -1.57264e-005 11.2622 -4.76837e-007 -7.10543e-015 -103.994 73.993 122.777 3.98015 -0.208661 -0.0949822 -1.53829 3.18269 -36.8939 6.57562 -1.19209e-007 -6.88339e-015 179.96 1.72973e-005 1.72998e-005 -7.51372 -0.272879 2.90291 -175.108 57.4057 -116.405 13.2558 -1.90735e-006 -9.53674e-007 99.1922 -40.7476 122.358 12.8897 -2.04281e-014 -3.55271e-015 -100.842 2.469e-006 7.23616e-007 11.2623 1.33227e-013 -2.86102e-006 67.7868 -81.4467 58.5048 3.98015 -0.208661 0.0949754 14.231 -11.481 50.9989 6.57563 -1.77636e-015 -1.5099e-014 -1.29331e-007 -1.66047e-008 1.26406e-008 4.195 -0.00312996 1.37498e-010 28.755 0.230878 -12.6227 4.17604 0.298252 -4.10277e-009 11.6239 1.57576 -8.57366 6.53259 -3.90693 -2.55362 174.27 1.70104 158.224 6.5326 -3.90695 2.55371 -10.3395 4.02713 -22.0018 1.75934 -4.15839 -4.45634 8.42705 -49.3086 149.259 1.75933 -4.1584 4.45616 -179.05 -29.6135 -42.2595 11.2964 -1.06183 2.32054 126.288 -9.30427 -128.267 11.2964 -1.06183 -2.32035 -51.3036 -24.8582 47.1916 1.31489 1.30001 2.38177e-010 -155.589 -0.0209503 -179.996 12.6869 1.42109e-014 0 -5.3724e-008 -1.47574e-010 3.05111e-011 
-27.2432 22.6956 1.50599 109.993 -83.5331 -179.987 0 1.13687e-013 0 -99.3773 2.61468 -95.6859 -7.25225 -1.74978 -2.91029e-011 -13.443 6.83933 -173.12 15.788 0 1.77636e-015 -44.6323 5.3465 30.006 16.0015 9.53674e-007 4.76837e-007 -70.4251 -15.0442 22.5058 16.1689 -1.90735e-006 3.8147e-006 -64.7758 5.61446 24.6777 6.29492 2.96254 -0.185577 8.19274 10.1852 10.7948 6.12662 8.45827 -1.77275e-009 -88.9959 -0.0287781 179.988 -5.63588 -2.93023 -5.96249 -63.2003 2.37157 176.631 13.6591 -1.90735e-006 -8.88178e-016 -82.5522 1.23457e-006 9.29871e-006 9.07516 -5.72205e-006 -7.4607e-014 102.102 1.89517e-007 8.34931e-008 8.13856 0 -1.95399e-014 -5.38454 3.23948 3.44511 3.79737 6.30085 2.74412e-011 89.9467 0.000436 -1.57711e-010 0.83877 -5.96046e-008 0 -2.88949e-008 -2.88507e-011 1.93769e-011 -7.63721 -1.01064 4.53205 -119.197 1.20254 -167.674 13.6591 9.53674e-007 -1.77636e-015 -116.351 0.00265535 0.00132565 9.07516 -8.88178e-015 -4.76837e-007 120.245 4.40483e-006 -1.40575e-005 8.13856 -1.77636e-015 -4.76837e-007 -46.4605 -3.19278 -7.5447 3.79738 6.30086 5.16845e-010 89.9979 0.00023162 -12.483 0.838758 2.23517e-008 0 -179.96 0.000481476 -0.000407005 12.1681 -0.0104752 -2.54006e-006 13.6555 0.00714776 6.15176 -0.157495 5.09008 -6.54009 -92.7197 -0.088341 -167.993 -0.157494 5.09007 6.54 87.253 0.00941107 11.9646 8.2971 8.50413 8.02779e-008 -91.6509 -0.0726471 -179.955 13.2792 -0.00986671 2.32911e-011 19.8158 0.00527267 6.15083 12.4882 -6.66644 -1.03303e-005 24.0475 -0.0138998 -15.1337 -7.93408 1.07369 0.926342 141.296 -44.2491 92.4535 13.2557 -1.90735e-006 -1.90735e-006 -63.2859 79.5979 25.8935 12.8897 0 -1.77636e-014 -60.5925 -7.45962e-006 -1.49359e-005 11.2622 -4.76837e-007 -3.55271e-015 -116.703 77.0191 126.264 3.98015 -0.208661 -0.0949822 -3.37258 0.544369 -37.5471 6.57562 -1.19209e-007 1.11022e-014 179.96 1.72972e-005 1.73002e-005 -7.31888 1.0732 3.20043 178.948 58.697 -120.965 13.2558 -1.90735e-006 -9.53674e-007 114.004 -48.143 139.205 12.8897 -1.64313e-014 -1.77636e-015 -89.4584 -8.96555e-006 7.33182e-007 11.2622 1.68754e-013 -2.86102e-006 57.6985 -78.4783 51.1832 3.98015 -0.208661 0.0949754 14.2312 -11.481 45.9692 6.57563 5.32907e-015 0 -1.29331e-007 -1.66047e-008 1.26406e-008 4.195 -0.00312996 1.39163e-010 30.752 -0.0120095 -15.1362 4.17604 0.298252 2.8058e-009 19.4664 -1.66837 -4.87876 6.53259 -3.90693 -2.55362 -172.051 -3.76428 156.016 6.5326 -3.90695 2.55371 1.68243 -0.957931 -24.241 1.75934 -4.15839 -4.45634 3.42879 -52.6856 152.044 1.75933 -4.1584 4.45616 172.988 -26.2692 -43.9844 11.2964 -1.06183 2.32054 126.293 9.05904 -141.625 11.2964 -1.06183 -2.32035 -54.1606 -13.3111 26.345 1.31489 1.30001 5.33506e-008 -166.99 -0.00891114 -179.999 12.6869 -1.42109e-014 4.44089e-015 -5.3724e-008 -1.47573e-010 3.05206e-011 
